<svg width="127" height="24" viewBox="0 0 127 24" fill="none" xmlns="http://www.w3.org/2000/svg">
<path d="M4.56 23.3C3.44 23.3 2.5 22.94 1.74 22.22C0.98 21.48 0.6 20.54 0.6 19.4C0.6 18.24 0.98 17.31 1.74 16.61C2.5 15.91 3.44 15.56 4.56 15.56C5.68 15.56 6.62 15.91 7.38 16.61C8.14 17.31 8.52 18.24 8.52 19.4C8.52 20.54 8.14 21.48 7.38 22.22C6.62 22.94 5.68 23.3 4.56 23.3ZM19.6713 23.3C17.6713 23.3 15.9213 22.93 14.4213 22.19C12.9413 21.45 11.7913 20.44 10.9713 19.16C10.1513 17.86 9.74133 16.4 9.74133 14.78C9.74133 13.12 10.1413 11.65 10.9413 10.37C11.7613 9.09 12.8713 8.09 14.2713 7.37C15.6913 6.65 17.2813 6.29 19.0413 6.29C20.6613 6.29 22.1513 6.61 23.5113 7.25C24.8913 7.89 25.9913 8.84 26.8113 10.1C27.6513 11.36 28.0713 12.92 28.0713 14.78C28.0713 15.02 28.0613 15.29 28.0413 15.59C28.0213 15.87 28.0013 16.13 27.9813 16.37H15.3513V13.1H24.3813L21.8313 13.97C21.8313 13.33 21.7113 12.79 21.4713 12.35C21.2513 11.89 20.9413 11.54 20.5413 11.3C20.1413 11.04 19.6613 10.91 19.1013 10.91C18.5413 10.91 18.0513 11.04 17.6313 11.3C17.2313 11.54 16.9213 11.89 16.7013 12.35C16.4813 12.79 16.3713 13.33 16.3713 13.97V14.99C16.3713 15.69 16.5113 16.29 16.7913 16.79C17.0713 17.29 17.4713 17.67 17.9913 17.93C18.5113 18.17 19.1413 18.29 19.8813 18.29C20.6413 18.29 21.2613 18.19 21.7413 17.99C22.2413 17.79 22.7613 17.49 23.3013 17.09L26.8413 20.66C26.0413 21.52 25.0513 22.18 23.8713 22.64C22.7113 23.08 21.3113 23.3 19.6713 23.3Z" fill="black"/>
<path d="M38.2509 23.48C36.4909 23.48 34.7909 23.28 33.1509 22.88C31.5109 22.48 30.1609 21.96 29.1009 21.32L31.3809 16.16C32.3809 16.74 33.4909 17.21 34.7109 17.57C35.9509 17.91 37.1509 18.08 38.3109 18.08C38.9909 18.08 39.5209 18.04 39.9009 17.96C40.3009 17.86 40.5909 17.73 40.7709 17.57C40.9509 17.39 41.0409 17.18 41.0409 16.94C41.0409 16.56 40.8309 16.26 40.4109 16.04C39.9909 15.82 39.4309 15.64 38.7309 15.5C38.0509 15.34 37.3009 15.18 36.4809 15.02C35.6609 14.84 34.8309 14.61 33.9909 14.33C33.1709 14.05 32.4109 13.68 31.7109 13.22C31.0309 12.76 30.4809 12.16 30.0609 11.42C29.6409 10.66 29.4309 9.72 29.4309 8.6C29.4309 7.3 29.7909 6.12 30.5109 5.06C31.2509 3.98 32.3409 3.12 33.7809 2.48C35.2409 1.84 37.0509 1.52 39.2109 1.52C40.6309 1.52 42.0309 1.67 43.4109 1.97C44.7909 2.27 46.0309 2.73 47.1309 3.35L45.0009 8.48C43.9609 7.96 42.9509 7.57 41.9709 7.31C41.0109 7.05 40.0709 6.92 39.1509 6.92C38.4709 6.92 37.9309 6.98 37.5309 7.1C37.1309 7.22 36.8409 7.38 36.6609 7.58C36.5009 7.78 36.4209 8 36.4209 8.24C36.4209 8.6 36.6309 8.89 37.0509 9.11C37.4709 9.31 38.0209 9.48 38.7009 9.62C39.4009 9.76 40.1609 9.91 40.9809 10.07C41.8209 10.23 42.6509 10.45 43.4709 10.73C44.2909 11.01 45.0409 11.38 45.7209 11.84C46.4209 12.3 46.9809 12.9 47.4009 13.64C47.8209 14.38 48.0309 15.3 48.0309 16.4C48.0309 17.68 47.6609 18.86 46.9209 19.94C46.2009 21 45.1209 21.86 43.6809 22.52C42.2409 23.16 40.4309 23.48 38.2509 23.48ZM61.3277 6.29C62.5877 6.29 63.7277 6.55 64.7477 7.07C65.7677 7.57 66.5677 8.36 67.1477 9.44C67.7477 10.52 68.0477 11.92 68.0477 13.64V23H61.2677V14.81C61.2677 13.79 61.0877 13.07 60.7277 12.65C60.3677 12.21 59.8777 11.99 59.2577 11.99C58.7977 11.99 58.3677 12.1 57.9677 12.32C57.5877 12.52 57.2777 12.86 57.0377 13.34C56.8177 13.82 56.7077 14.47 56.7077 15.29V23H49.9277V0.739999H56.7077V11.39L55.0877 10.01C55.7277 8.77 56.5877 7.84 57.6677 7.22C58.7677 6.6 59.9877 6.29 61.3277 6.29ZM79.9552 23.3C78.0952 23.3 76.4452 22.94 75.0052 22.22C73.5852 21.48 72.4652 20.47 71.6452 19.19C70.8252 17.91 70.4152 16.44 70.4152 14.78C70.4152 13.12 70.8252 11.65 71.6452 10.37C72.4652 9.09 73.5852 8.09 75.0052 7.37C76.4452 6.65 78.0952 6.29 79.9552 6.29C81.8152 6.29 83.4652 6.65 84.9052 7.37C86.3452 8.09 87.4652 9.09 88.2652 10.37C89.0852 11.65 89.4952 13.12 89.4952 14.78C89.4952 16.44 89.0852 17.91 88.2652 19.19C87.4652 20.47 86.3452 21.48 84.9052 22.22C83.4652 22.94 81.8152 23.3 79.9552 23.3ZM79.9552 18.02C80.4552 18.02 80.9052 17.9 81.3052 17.66C81.7052 17.42 82.0252 17.06 82.2652 16.58C82.5052 16.08 82.6252 15.48 82.6252 14.78C82.6252 14.06 82.5052 13.47 82.2652 13.01C82.0252 12.53 81.7052 12.17 81.3052 11.93C80.9052 11.69 80.4552 11.57 79.9552 11.57C79.4552 11.57 79.0052 11.69 78.6052 11.93C78.2052 12.17 77.8852 12.53 77.6452 13.01C77.4052 13.47 77.2852 14.06 77.2852 14.78C77.2852 15.48 77.4052 16.08 77.6452 16.58C77.8852 17.06 78.2052 17.42 78.6052 17.66C79.0052 17.9 79.4552 18.02 79.9552 18.02ZM100.677 23.3C98.6772 23.3 96.9272 22.93 95.4272 22.19C93.9472 21.45 92.7972 20.44 91.9772 19.16C91.1572 17.86 90.7472 16.4 90.7472 14.78C90.7472 13.12 91.1472 11.65 91.9472 10.37C92.7672 9.09 93.8772 8.09 95.2772 7.37C96.6972 6.65 98.2872 6.29 100.047 6.29C101.667 6.29 103.157 6.61 104.517 7.25C105.897 7.89 106.997 8.84 107.817 10.1C108.657 11.36 109.077 12.92 109.077 14.78C109.077 15.02 109.067 15.29 109.047 15.59C109.027 15.87 109.007 16.13 108.987 16.37H96.3572V13.1H105.387L102.837 13.97C102.837 13.33 102.717 12.79 102.477 12.35C102.257 11.89 101.947 11.54 101.547 11.3C101.147 11.04 100.667 10.91 100.107 10.91C99.5472 10.91 99.0572 11.04 98.6372 11.3C98.2372 11.54 97.9272 11.89 97.7072 12.35C97.4872 12.79 97.3772 13.33 97.3772 13.97V14.99C97.3772 15.69 97.5172 16.29 97.7972 16.79C98.0772 17.29 98.4772 17.67 98.9972 17.93C99.5172 18.17 100.147 18.29 100.887 18.29C101.647 18.29 102.267 18.19 102.747 17.99C103.247 17.79 103.767 17.49 104.307 17.09L107.847 20.66C107.047 21.52 106.057 22.18 104.877 22.64C103.717 23.08 102.317 23.3 100.677 23.3ZM117.637 23.3C116.237 23.3 114.857 23.15 113.497 22.85C112.137 22.55 111.037 22.16 110.197 21.68L112.057 17.21C112.837 17.67 113.737 18.03 114.757 18.29C115.797 18.55 116.807 18.68 117.787 18.68C118.607 18.68 119.157 18.61 119.437 18.47C119.737 18.33 119.887 18.14 119.887 17.9C119.887 17.66 119.717 17.49 119.377 17.39C119.037 17.27 118.587 17.18 118.027 17.12C117.467 17.06 116.847 16.99 116.167 16.91C115.507 16.81 114.837 16.67 114.157 16.49C113.477 16.31 112.857 16.04 112.297 15.68C111.737 15.32 111.287 14.84 110.947 14.24C110.607 13.62 110.437 12.84 110.437 11.9C110.437 10.86 110.747 9.92 111.367 9.08C112.007 8.24 112.947 7.57 114.187 7.07C115.447 6.55 116.997 6.29 118.837 6.29C120.037 6.29 121.237 6.4 122.437 6.62C123.637 6.84 124.667 7.18 125.527 7.64L123.667 12.11C122.827 11.65 121.997 11.34 121.177 11.18C120.377 11 119.627 10.91 118.927 10.91C118.067 10.91 117.477 10.99 117.157 11.15C116.857 11.31 116.707 11.49 116.707 11.69C116.707 11.93 116.877 12.11 117.217 12.23C117.557 12.35 118.007 12.44 118.567 12.5C119.127 12.56 119.737 12.64 120.397 12.74C121.077 12.82 121.747 12.96 122.407 13.16C123.087 13.34 123.707 13.61 124.267 13.97C124.827 14.33 125.277 14.82 125.617 15.44C125.957 16.04 126.127 16.81 126.127 17.75C126.127 18.73 125.817 19.65 125.197 20.51C124.577 21.35 123.637 22.03 122.377 22.55C121.117 23.05 119.537 23.3 117.637 23.3Z" fill="#9949BC"/>
</svg>
